/* XPM */
static char * kirby_xpm[] = {
"64 64 583 2",
"  	c #FEFEFE",
". 	c #F4F4F4",
"+ 	c #EFEFEF",
"@ 	c #F1F1F1",
"# 	c #EDEDED",
"$ 	c #F7F7F7",
"% 	c #FDFDFD",
"& 	c #F8F8F8",
"* 	c #FBFBFB",
"= 	c #FAFAFA",
"- 	c #F5F5F5",
"; 	c #F2F2F2",
"> 	c #F3F3F3",
", 	c #F9F9F9",
"' 	c #EEEEEE",
") 	c #F6F6F6",
"! 	c #B8B8B8",
"~ 	c #B0B0B0",
"{ 	c #B3B3B3",
"] 	c #B7B7B7",
"^ 	c #B4B4B4",
"/ 	c #E9E9E9",
"( 	c #A9A9A9",
"_ 	c #808080",
": 	c #857E7F",
"< 	c #DB9DA6",
"[ 	c #918284",
"} 	c #7B7B7B",
"| 	c #A7A7A7",
"1 	c #F0F0F0",
"2 	c #E1E1E1",
"3 	c #D9D9D9",
"4 	c #8A7477",
"5 	c #7B5A5E",
"6 	c #D79BA4",
"7 	c #FAB4BE",
"8 	c #FBB4BE",
"9 	c #FEB5C0",
"0 	c #DFA1AA",
"a 	c #795C60",
"b 	c #DEDEDE",
"c 	c #E5E5E5",
"d 	c #B38D93",
"e 	c #B27E86",
"f 	c #F3ADB8",
"g 	c #F8B1BC",
"h 	c #B0888E",
"i 	c #D3D3D3",
"j 	c #AFAFAF",
"k 	c #A8898E",
"l 	c #F7B0BB",
"m 	c #F8B1BB",
"n 	c #AE8C91",
"o 	c #9C9C9C",
"p 	c #BCB7B8",
"q 	c #D89BA4",
"r 	c #FBB4BF",
"s 	c #FCB4BF",
"t 	c #E4A6AF",
"u 	c #BDB7B8",
"v 	c #DBDBDC",
"w 	c #CD949D",
"x 	c #D397A0",
"y 	c #C6C5C5",
"z 	c #BC9499",
"A 	c #FDB5C0",
"B 	c #BC8E95",
"C 	c #D4D4D4",
"D 	c #E6E6E6",
"E 	c #A78288",
"F 	c #AA7D83",
"G 	c #AEAEAE",
"H 	c #EBA8B2",
"I 	c #FCB5C0",
"J 	c #C08A92",
"K 	c #C68F97",
"L 	c #E3A3AD",
"M 	c #E4A4AE",
"N 	c #F9B5BF",
"O 	c #9D9D9D",
"P 	c #B79499",
"Q 	c #B6858C",
"R 	c #CAC9C9",
"S 	c #C89098",
"T 	c #F4B0BA",
"U 	c #AC9FA1",
"V 	c #ADA0A2",
"W 	c #F2AEB8",
"X 	c #BA9197",
"Y 	c #E0E0E0",
"Z 	c #9D8C8E",
"` 	c #D1949D",
" .	c #CDCCCD",
"..	c #BBBABA",
"+.	c #E6A4AE",
"@.	c #917276",
"#.	c #94757A",
"$.	c #91787C",
"%.	c #BF959B",
"&.	c #9E7278",
"*.	c #9F9F9F",
"=.	c #909090",
"-.	c #BD8890",
";.	c #E8A6B0",
">.	c #6C5659",
",.	c #DDDDDD",
"'.	c #6D595C",
").	c #BC8D94",
"!.	c #D8D8D8",
"~.	c #F6F5F6",
"{.	c #AA8C90",
"].	c #F6B0BB",
"^.	c #1C1214",
"/.	c #000000",
"(.	c #838383",
"_.	c #79565C",
":.	c #CA9099",
"<.	c #5E5E5E",
"[.	c #B29195",
"}.	c #E3E3E3",
"|.	c #BD878F",
"1.	c #EEABB5",
"2.	c #180F11",
"3.	c #6C4D52",
"4.	c #F3AEB8",
"5.	c #B5828A",
"6.	c #B58289",
"7.	c #C68E96",
"8.	c #D5D4D4",
"9.	c #FCFCFC",
"0.	c #B9B9B9",
"a.	c #696364",
"b.	c #A7777E",
"c.	c #C48D95",
"d.	c #FCB5BF",
"e.	c #8C7B7D",
"f.	c #C1C1C1",
"g.	c #ECECEC",
"h.	c #898989",
"i.	c #D399A2",
"j.	c #77555A",
"k.	c #01111E",
"l.	c #000205",
"m.	c #01121F",
"n.	c #010F1B",
"o.	c #00060F",
"p.	c #010B15",
"q.	c #011220",
"r.	c #000710",
"s.	c #916D72",
"t.	c #D499A2",
"u.	c #908E8F",
"v.	c #CFCFCF",
"w.	c #A47D83",
"x.	c #F6B1BB",
"y.	c #8B6369",
"z.	c #A77881",
"A.	c #032A47",
"B.	c #02253E",
"C.	c #011626",
"D.	c #011828",
"E.	c #022641",
"F.	c #022540",
"G.	c #002643",
"H.	c #043F6C",
"I.	c #011D31",
"J.	c #011625",
"K.	c #04406E",
"L.	c #032A49",
"M.	c #9F767C",
"N.	c #F7B1BC",
"O.	c #B1858C",
"P.	c #DCDCDC",
"Q.	c #CAC4C5",
"R.	c #A97980",
"S.	c #C58D95",
"T.	c #D0959D",
"U.	c #144A7D",
"V.	c #05508A",
"W.	c #012B4B",
"X.	c #023052",
"Y.	c #035491",
"Z.	c #4F5479",
"`.	c #DE9FA8",
" +	c #866677",
".+	c #065693",
"++	c #033D6A",
"@+	c #022B4B",
"#+	c #043D6A",
"$+	c #065898",
"%+	c #866A81",
"&+	c #B5ADAE",
"*+	c #F6F7F6",
"=+	c #D2D2D2",
"-+	c #D09BA3",
";+	c #1E3C66",
">+	c #0666B0",
",+	c #034E89",
"'+	c #04518D",
")+	c #0567B3",
"!+	c #7A5F72",
"~+	c #085A9B",
"{+	c #045B9E",
"]+	c #034E88",
"^+	c #055B9E",
"/+	c #065A9B",
"(+	c #D49AA3",
"_+	c #E4E4E4",
":+	c #AB7E84",
"<+	c #605671",
"[+	c #0566B1",
"}+	c #0569B6",
"|+	c #0665AE",
"1+	c #93707F",
"2+	c #D498A1",
"3+	c #365A92",
"4+	c #056AB7",
"5+	c #0669B6",
"6+	c #FDB4BF",
"7+	c #BA8A91",
"8+	c #C5C3C3",
"9+	c #D3969F",
"0+	c #D0939D",
"a+	c #045695",
"b+	c #056AB8",
"c+	c #054C85",
"d+	c #7E5C68",
"e+	c #7E5D6A",
"f+	c #DB9EA7",
"g+	c #C4BFC0",
"h+	c #918889",
"i+	c #EFAAB5",
"j+	c #7A647B",
"k+	c #066AB7",
"l+	c #0564AD",
"m+	c #906F81",
"n+	c #F6AFBA",
"o+	c #D297A1",
"p+	c #06528F",
"q+	c #CF959F",
"r+	c #9B888B",
"s+	c #BFBFBF",
"t+	c #D89CA5",
"u+	c #FEB2BD",
"v+	c #FC9DA6",
"w+	c #F5B2BC",
"x+	c #6F565F",
"y+	c #81636C",
"z+	c #F9B2BD",
"A+	c #FDB5BF",
"B+	c #C49099",
"C+	c #C5929B",
"D+	c #FDA1AA",
"E+	c #FCAEB9",
"F+	c #E0A2AB",
"G+	c #C5C5C5",
"H+	c #DD9FA8",
"I+	c #FD929B",
"J+	c #FDB2BC",
"K+	c #FDB2BD",
"L+	c #FDA3AC",
"M+	c #FEB4BF",
"N+	c #FEB0BB",
"O+	c #FDA4AE",
"P+	c #FEB3BD",
"Q+	c #FD959D",
"R+	c #FCAEB8",
"S+	c #E5A4AE",
"T+	c #BABABA",
"U+	c #AF969A",
"V+	c #FD848B",
"W+	c #FDADB7",
"X+	c #FD9BA4",
"Y+	c #FEA0AA",
"Z+	c #FD969E",
"`+	c #FD858C",
" @	c #FDAFBA",
".@	c #F5AFBA",
"+@	c #A98D91",
"@@	c #A6777E",
"#@	c #FDA8B2",
"$@	c #FDA5AE",
"%@	c #FD858D",
"&@	c #FDA7B2",
"*@	c #CC949C",
"=@	c #DB9DA7",
"-@	c #F5AFB9",
";@	c #A4787F",
">@	c #FB9EA7",
",@	c #FD848C",
"'@	c #FC868D",
")@	c #FDAAB4",
"!@	c #A9787F",
"~@	c #E7E7E7",
"{@	c #FD8F96",
"]@	c #FDA3AD",
"^@	c #FDA6B1",
"/@	c #BC8A91",
"(@	c #B8858C",
"_@	c #EAA8B2",
":@	c #FC9CA5",
"<@	c #FEACB7",
"[@	c #FC9099",
"}@	c #BAAFB1",
"|@	c #E9A7B1",
"1@	c #FC9EA8",
"2@	c #FEAFBA",
"3@	c #FD8C94",
"4@	c #FD8F98",
"5@	c #CD939C",
"6@	c #E1A1AA",
"7@	c #FD888F",
"8@	c #FC939C",
"9@	c #FC9BA4",
"0@	c #EEAAB4",
"a@	c #ACA0A1",
"b@	c #DC7E85",
"c@	c #FDB0BB",
"d@	c #FCA1AB",
"e@	c #FD8E96",
"f@	c #FEB1BC",
"g@	c #FEAAB4",
"h@	c #FD9099",
"i@	c #FEB3BE",
"j@	c #FDA5AF",
"k@	c #FCA0A9",
"l@	c #E4858C",
"m@	c #D1D1D1",
"n@	c #BE777B",
"o@	c #FD9EA8",
"p@	c #FD9199",
"q@	c #E5797F",
"r@	c #F37F86",
"s@	c #FDA1AB",
"t@	c #FEA3AD",
"u@	c #F58087",
"v@	c #E1767C",
"w@	c #FDA4AD",
"x@	c #FDA0AA",
"y@	c #C97C80",
"z@	c #8E8283",
"A@	c #BF656A",
"B@	c #E3787E",
"C@	c #E87980",
"D@	c #B15C61",
"E@	c #9A7F80",
"F@	c #DEDDDD",
"G@	c #7C7070",
"H@	c #D6777C",
"I@	c #E7797F",
"J@	c #FB838A",
"K@	c #EC7B82",
"L@	c #BA7377",
"M@	c #D8787E",
"N@	c #FD878F",
"O@	c #FDACB6",
"P@	c #FC878F",
"Q@	c #DB767C",
"R@	c #AE6D71",
"S@	c #EB7B82",
"T@	c #FC848B",
"U@	c #807575",
"V@	c #DBDADA",
"W@	c #ADADAD",
"X@	c #A5A5A4",
"Y@	c #BE6A6E",
"Z@	c #C6696E",
"`@	c #A89495",
" #	c #C3C2C3",
".#	c #9D8284",
"+#	c #FD929A",
"@#	c #926A6C",
"##	c #D7D7D7",
"$#	c #A89798",
"%#	c #C3686D",
"&#	c #9F9E9F",
"*#	c #B1B1B1",
"=#	c #C9C9C9",
"-#	c #C4C4C4",
";#	c #C7C7C7",
">#	c #EBEBEB",
",#	c #C8C3C3",
"'#	c #D67278",
")#	c #FD8991",
"!#	c #FEACB6",
"~#	c #FD8B92",
"{#	c #DB7379",
"]#	c #C1B9BA",
"^#	c #C8C8C8",
"/#	c #9F9A9A",
"(#	c #FEB4C0",
"_#	c #FC8991",
":#	c #F8858B",
"<#	c #A6A0A0",
"[#	c #CACBCA",
"}#	c #CB7176",
"|#	c #FC858C",
"1#	c #D47278",
"2#	c #B8AEAF",
"3#	c #DC747A",
"4#	c #FD949D",
"5#	c #FD98A1",
"6#	c #E0757C",
"7#	c #B8ACAC",
"8#	c #ABA2A3",
"9#	c #964553",
"0#	c #A92645",
"a#	c #EE7D84",
"b#	c #FDAFB9",
"c#	c #FD9DA7",
"d#	c #F07E85",
"e#	c #9A263F",
"f#	c #9B4655",
"g#	c #ADA3A5",
"h#	c #D4154E",
"i#	c #FE125A",
"j#	c #FD135A",
"k#	c #A84352",
"l#	c #FC8B93",
"m#	c #FCA4AE",
"n#	c #F17F86",
"o#	c #A94552",
"p#	c #EE1556",
"q#	c #F31256",
"r#	c #D2124B",
"s#	c #C4BABC",
"t#	c #CCCCCC",
"u#	c #C84B62",
"v#	c #EB1153",
"w#	c #A44450",
"x#	c #CA6B70",
"y#	c #FDACB7",
"z#	c #FEAEB9",
"A#	c #FD99A2",
"B#	c #D06D73",
"C#	c #A24B54",
"D#	c #DF114F",
"E#	c #C23754",
"F#	c #D2D3D3",
"G#	c #AC3F54",
"H#	c #FA1259",
"I#	c #EF1255",
"J#	c #BD234A",
"K#	c #D67077",
"L#	c #E97A81",
"M#	c #FA8289",
"N#	c #FD8B93",
"O#	c #FD8A91",
"P#	c #D77177",
"Q#	c #AE2243",
"R#	c #E31151",
"S#	c #F01255",
"T#	c #AE3F54",
"U#	c #D6D5D5",
"V#	c #A5626C",
"W#	c #B60F41",
"X#	c #9E0E39",
"Y#	c #BE6067",
"Z#	c #C9686E",
"`#	c #F07D84",
" $	c #C1646A",
".$	c #960D36",
"+$	c #A6123E",
"@$	c #AE636F",
"#$	c #A87C82",
"$$	c #EE1456",
"%$	c #CC1249",
"&$	c #C51046",
"*$	c #A74552",
"=$	c #9F5459",
"-$	c #A95B5F",
";$	c #B36165",
">$	c #A04952",
",$	c #BC1043",
"'$	c #BF1044",
")$	c #F21256",
"!$	c #E81252",
"~$	c #A3A2A2",
"{$	c #EC1E5A",
"]$	c #FD6390",
"^$	c #FD5987",
"/$	c #FE185C",
"($	c #E71152",
"_$	c #D9154E",
":$	c #733039",
"<$	c #643035",
"[$	c #745B5C",
"}$	c #73595A",
"|$	c #623034",
"1$	c #713039",
"2$	c #CC1A4B",
"3$	c #DD114E",
"4$	c #E31150",
"5$	c #F31658",
"6$	c #F85481",
"7$	c #FA6791",
"8$	c #E61E57",
"9$	c #A29E9E",
"0$	c #AA8085",
"a$	c #F84E7B",
"b$	c #FE7BA3",
"c$	c #FD396D",
"d$	c #F21356",
"e$	c #AD7980",
"f$	c #A98086",
"g$	c #E41352",
"h$	c #F52D64",
"i$	c #F5517D",
"j$	c #9F6971",
"k$	c #C90E46",
"l$	c #FE3269",
"m$	c #FD719B",
"n$	c #FD6A94",
"o$	c #FD2662",
"p$	c #E21151",
"q$	c #BDBDBD",
"r$	c #C6C6C6",
"s$	c #CE134A",
"t$	c #F41F5C",
"u$	c #FA6790",
"v$	c #FC739C",
"w$	c #F43567",
"x$	c #CA0F47",
"y$	c #FD2A66",
"z$	c #FD2563",
"A$	c #F51257",
"B$	c #9D747A",
"C$	c #9A8184",
"D$	c #E91253",
"E$	c #F4245E",
"F$	c #F42C63",
"G$	c #BEBEBE",
"H$	c #F71157",
"I$	c #AF6771",
"J$	c #E8E8E8",
"K$	c #AB787E",
"L$	c #EA1253",
"M$	c #CECECE",
"N$	c #B63D55",
"O$	c #B35E6C",
"P$	c #DADADA",
"Q$	c #C5284E",
"R$	c #CFCBCB",
"S$	c #D4D1D2",
"T$	c #B52C4C",
"U$	c #F11255",
"V$	c #DBDBDB",
"W$	c #ED1154",
"X$	c #C41147",
"Y$	c #C0BFBF",
"Z$	c #B92E4D",
"`$	c #E1114F",
" %	c #B07E84",
".%	c #FC135A",
"+%	c #A86971",
"@%	c #BCBCBB",
"#%	c #AD8085",
"$%	c #F11356",
"%%	c #A56870",
"&%	c #A72C48",
"*%	c #EE1255",
"=%	c #FB1259",
"-%	c #D61F51",
";%	c #6B343E",
">%	c #E2E2E2",
",%	c #683740",
"'%	c #C51E4B",
")%	c #E41251",
"!%	c #E61252",
"~%	c #A72946",
"{%	c #929292",
"]%	c #8C8C8C",
"^%	c #C1455C",
"/%	c #CD0D47",
"(%	c #9D8084",
"_%	c #8E8E8E",
":%	c #949494",
"<%	c #968689",
"[%	c #C40D44",
"}%	c #B9324F",
"|%	c #969696",
"1%	c #D0D0D0",
"2%	c #BCBCBC",
"  . +   . @   @ @   @ .   + .   # $ % # & * # = = # * & # % $ #   . +   . @   @ @   @ .   + .   # $ % # & * # = = # * & # % $ # ",
"= - ; = - > = . . = > - = ; - = ; $ , ; $ & ; & & ; & $ ; , $ ; = - ; = - > = . . = > - = ; - = ; $ , ; $ & ; & & ; & $ ; , $ ; ",
"# $ % # $ * # = = # * $ # % $ #   . '   . @   @ @   @ .   ' .   # $ % # $ * # = = # * $ # % $ #   . '   . @   @ @   @ .   ' .   ",
"$ ) . $ - - $ - - $ - - $ . ) $ . ) $ . ) $ . $ $ . $ # ! ~ { ] ~ ^ ] ~ / - $ - - $ - - $ . ) $ . ) $ . ) $ . $ $ . $ ) . $ ) . ",
"  . '   . @   @ @   @ .   ' .   # $ % # $ * # = = ( _ : < < < < < < < < [ } | @ @ % @ .   ' .   # $ % # $ * # = = # * $ # % $ # ",
"1 $ = 1 $ , 1 , , 1 , $ 1 = $ 1 * - @ * 2 3 4 5 5 6 7 8 9 9 9 9 9 9 9 9 8 7 0 5 5 a b 2 1 = $ 1 * - @ * - > * > > * > - * @ - * ",
"1 $ * 1 $ , 1 , , 1 , $ 1 * $ 1 * - @ c d e f 9 9 9 9 9 9 9 9 9 9 9 9 9 9 9 9 9 9 g e h i * $ 1 * - @ * - ; * > > * ; - * @ - * ",
"  . '   . @   @ @   @ .   ' .   # $ j k l 9 9 9 9 9 9 9 9 9 9 9 9 9 9 9 9 9 9 9 9 9 9 m n o .   # $ % # $ * # = = # * $ # % $ # ",
"$ ) . $ - - $ - - $ - - $ . ) $ . p q r 9 9 9 9 9 9 9 9 9 9 9 9 9 9 9 9 9 9 9 9 9 9 9 9 s t u $ . ) $ . ) $ . $ $ . $ ) . $ ) . ",
"# $ % # $ * # = = # * $ # % $ # v w 9 9 9 9 9 9 9 9 9 9 9 9 9 9 9 9 9 9 9 9 9 9 9 9 9 9 9 9 x y   . '   . @   @ @   @ .   ' .   ",
", - > , - . , . . , . - , > - 2 z A 9 9 9 9 9 9 9 9 9 9 9 9 9 9 9 9 9 9 9 9 9 9 9 9 9 9 9 9 9 B C ) , ; $ & ; & & ; & $ ; , ) ; ",
"  . '   . @   @ @   @ .   ' D E s 9 9 9 9 9 9 9 9 9 9 9 9 9 9 9 9 9 9 9 9 9 9 9 9 9 9 9 9 9 9 s F / % # $ * # = = # * $ # % $ # ",
"# $ % # & * # = = # * $ # % G H 9 9 9 9 9 9 9 9 9 I J K 9 9 9 9 9 9 9 L J M 9 9 9 9 9 9 9 9 9 9 N O '   . @   @ @   @ .   ' .   ",
"@ $ = @ $ & @ & & @ & $ @ / P g 9 9 9 9 9 9 9 9 9 Q 3 R S 9 9 9 9 9 T U 3 V W 9 9 9 9 9 9 9 9 9 A X Y = - > = . . = > - = ; - = ",
"  . '   . @   @ @   @ .   Z r 9 9 9 9 9 9 9 9 9 `  .  % ..+.9 9 9 9 @.*   * #.9 9 9 9 9 9 9 9 9 9 s $.# $ * # = = # * $ # % $ # ",
". ) $ . ) $ . $ $ . $ ) b %.9 9 9 9 9 9 9 9 9 9 &.*.  - =.-.9 9 9 ;.>.,.  b '.;.9 9 9 9 9 9 9 9 9 9 ).!.~.- $ - - $ - - $ - ) $ ",
"# $ % # $ * # = = # * 1 {.].9 9 9 9 9 9 9 9 9 A ^./.=.(./._.9 9 9 :./.<.=.<./.:.9 9 9 9 9 9 9 9 9 9 m [.}.@   @ @   @ .   ' .   ",
"* - @ * - > * > > * > 3 |.9 9 9 9 9 9 9 9 9 9 1.2././././.3.4.9 9 5./././././.6.A 9 9 9 9 9 9 9 9 9 9 7.8., 1 , , 1 , $ 1 = $ @ ",
"9.- @ 9.- ; 9.> > * 0.a.9 9 9 9 9 9 9 9 9 9 9 b././././././.c.9 d./././././././.r 9 9 9 9 9 9 9 9 9 9 9 e.f.g., , 1 , $ 1 * $ 1 ",
"# $ % # $ * # = D h.i.j.9 9 9 9 9 9 9 9 9 9 9 b.k.k./.l.m.n.c.9 d.o.m.p./.p.q.r.r 9 9 9 9 9 9 9 9 9 9 9 s.t.u.v.@   @ .   ' .   ",
". ) $ . ) $ + Y w.x.9 y.9 9 9 9 9 9 9 9 9 9 9 z.A.B.C.D.E.F.c.9 d.G.H.I.J.I.K.L.r 9 9 9 9 9 9 9 9 9 9 9 M.9 N.O.P.; - - $ . ) $ ",
"  . '   . @ Q.R.N.9 9 S.9 9 9 9 9 9 9 9 9 9 9 T.U.V.W.X.Y.Z.`.9 A  +.+++@+#+$+%+s 9 9 9 9 9 9 9 9 9 9 9 w 9 9 s R.&+* $ # % $ # ",
"> ) , > *+=+-+9 9 9 9 9 9 9 9 9 9 9 9 9 9 9 9 9 ;+>+,+'+)+!+9 9 9 :.~+{+]+^+/+:.9 9 9 9 9 9 9 9 9 9 9 9 9 9 9 9 9 (+f.- , > - , ",
"# $ % # _+:+s 9 9 9 9 9 9 9 9 9 9 9 9 9 9 9 9 9 <+[+}+}+|+1+9 9 9 2+3+4+5+4+3+2+9 9 9 9 9 9 9 9 9 9 9 9 9 9 9 9 9 6+7+Y   ' .   ",
"  . +   8+9+9 9 9 9 9 9 9 9 9 9 9 9 9 9 9 9 9 9 0+a+b+b+c++.9 9 9 9 d+b+b+b+e+9 9 9 9 9 9 9 9 9 9 9 9 9 9 9 9 9 9 9 f+g+# % $ # ",
"= - ; = h+9 9 9 9 9 9 9 9 9 9 9 9 9 9 9 9 9 9 9 i+j+k+l+m+n+9 9 9 9 o+p+b+p+q+9 9 9 9 9 9 9 9 9 9 9 9 9 9 9 9 9 9 9 9 r+@ = $ @ ",
"# $ % s+t+9 9 9 9 9 9 u+v+9 9 9 9 9 9 9 9 9 9 9 9 w+x+y+z+9 9 9 9 9 A+B+x+C+6+9 9 9 9 9 9 9 9 9 9 9 9 D+E+9 9 9 9 9 9 F+G+' .   ",
"$ ) - G+H+9 9 9 9 9 9 u+I+J+9 9 9 9 9 9 K+L+L+L+M+9 9 9 9 9 9 9 9 9 9 9 9 9 N+L+L+O+9 9 9 9 9 9 9 9 P+Q+R+9 9 9 9 9 9 S+T+$ ) . ",
"  . # U+f 9 9 9 9 9 9 u+V+W+9 9 9 9 9 9 X+V+V+V+Y+9 9 9 9 9 9 9 9 9 9 9 9 9 Z+V+V+`+O+9 9 9 9 9 9 9  @V+R+9 9 9 9 9 9 .@+@$ $ # ",
"@ $ & @@9 9 9 9 9 9 9 u+V+#@9 9 9 9 9 $@`+V+V+V+%@&@9 9 *@=@9 9 9 -@;@9 9 >@,@V+V+V+'@W+9 9 9 9 9 9 )@V+R+9 9 9 9 9 9 9 !@~@- * ",
"+ $ , @@9 9 9 9 9 9 9 u+V+{@9 9 9 9 9 ]@V+V+V+V+V+^@9 9 9 /@7.7.7.(@_@9 9 :@V+V+V+V+V+<@9 9 9 9 9 9 [@V+R+9 9 9 9 9 9 9 !@D - 9.",
"  . # }@|@9 9 9 9 9 9 1@V+{@9 9 9 9 9 2@3@V+V+V+4@N+9 9 9 -@5@5@5@6@9 9 9 W+7@V+V+V+8@u+9 9 9 9 9 9 [@V+9@9 9 9 9 9 9 0@a@= $ # ",
"$ ) . G+b@R+M+9 9 c@d@`+V+`+]@9 9 9 9 9 W+e@e@e@f@9 9 9 9 9 9 9 9 9 9 9 9 9 g@e@e@h@i@9 9 9 9 9 9 j@`+V+`+k@c@9 9 M+R+l@T+$ ) . ",
"# $ % m@n@V+o@]@]@p@V+V+q@r@s@9 9 9 9 9 9 9 9 9 9 9 9 9 9 9 9 9 9 9 9 9 9 9 9 9 9 9 9 9 9 9 9 9 9 t@u@v@V+V+e@w@]@x@V+y@P.' .   ",
", - . , z@V+V+V+V+V+V+V+A@B@s@9 9 9 9 9 9 9 9 9 9 9 9 9 9 9 9 9 9 9 9 9 9 9 9 9 9 9 9 9 9 9 9 9 9 t@C@D@V+V+V+V+V+V+V+E@> & ) > ",
"  . '   F@G@H@I@J@V+V+K@L@M@N@O@9 9 9 9 9 9 9 9 9 9 9 9 9 9 9 9 9 9 9 9 9 9 9 9 9 9 9 9 9 9 9 9  @P@Q@R@S@V+V+T@I@Q@U@V@# % $ # ",
"# $ % # & * W@X@Y@Z@Z@`@ #.#V++#9 9 9 9 9 9 9 9 9 9 9 9 9 9 9 9 9 9 9 9 9 9 9 9 9 9 9 9 9 9 9 9 Z+V+@###$#Z@Z@%#&#*#@ .   + .   ",
"@ $ = @ $ , @ & =#-#;#>#@ ,#'#)#)@9 9 9 9 9 9 9 9 9 9 9 9 9 9 9 9 9 9 9 9 9 9 9 9 9 9 9 9 9 9 !#~#{#]#= g.-#^#G+> * > - * ; - * ",
"  . '   . @   @ @   @ .   g./#K@7@(#9 9 9 9 9 9 9 9 9 9 9 9 9 9 9 9 9 9 9 9 9 9 9 9 9 9 9 9 9 _#:#<#, # $ * # = = # * $ # % $ # ",
"- ) $ - ) $ - ) $ - $ ) - $ [#}#V+]@N+9 9 9 9 9 9 9 9 9 9 9 9 9 9 9 9 9 9 9 9 9 9 9 9 9 9 f@w@|#1#=#- $ ) - $ - - $ - ) $ - ) $ ",
"# $ % # $ * # = = # * $ # % $ 2#3#V+4#9 9 9 9 9 9 9 9 9 9 9 9 9 9 9 9 9 9 9 9 9 9 9 9 9 9 5#V+6#7#. '   . @   @ @   @ .   ' .   ",
"* - ; * - > * > > * > - * ' 8#9#0#a#,@9@ @b#c@9 9 9 9 9 9 9 9 9 9 9 9 9 9 9 9 9 9 N+ @b#c#`+d#e#f#g#) @ $ , @ , , @ , $ @ = $ @ ",
"9.- 1 9.- ; 9.; ; 9.; - 9.]#h#i#j#k#K@V+V+V+l#m#M+9 9 9 9 9 9 9 9 9 9 9 9 9 9 9 m#e@V+V+V+n#o#p#q#r#s#+ $ = + , , + = $ + * $ + ",
"# $ % # $ * # = = # * $ t#u#i#i#i#v#w#x#V+V+V+V+5#y#9 9 9 9 9 9 9 9 9 9 9 9 z#A#V+V+V+V+B#C#D#q#q#q#E#F#. @   @ @   @ .   ' .   ",
". ) $ . ) $ . $ $ . $ Y G#H#i#i#i#i#I#J#K#L#M#V+V+)#N#N#c# @ @ @ @ @ @x@N#N#O#V+V+J@L#P#Q#R#q#q#q#q#S#T#U#- $ - - $ - - $ . ) $ ",
"  . '   . @   @ @   Y V#i#i#i#i#i#i#i#i#W#X#Y#Z#Z#K@V+V+V+V+V+V+V+V+V+V+V+V+`#Z#Z# $.$+$q#q#q#q#q#q#q#q#@$~@# = = # * $ # % $ # ",
"> ) & > ) $ > $ $ > #$$$i#i#i#i#i#i#i#i#i#i#%$&$&$*$=$-$V+V+V+V+V+V+V+V+;$=$>$,$,$'$)$q#q#q#q#q#q#q#q#q#!$F ; - - & . - & . - & ",
"# $ % # $ * # = = ~${$]$^$/$i#i#i#i#i#i#i#i#i#i#i#I#($_$:$:$<$[$}$|$1$1$2$3$4$q#q#q#q#q#q#q#q#q#q#q#5$6$7$8$9$@ @   @ .   ' .   ",
"  . +   . @   @ _+0$a$b$b$c$i#i#i#i#i#i#i#i#i#i#i#i#i#i#j#d$e$~@% f$g$)$q#q#q#q#q#q#q#q#q#q#q#q#q#q#h$b$b$i$j$/ = # * & # % $ # ",
"* - ; * - > * > m@k$l$m$n$o$i#i#i#i#i#i#i#i#i#i#i#i#i#i#i#p$q$@ * r$s$q#q#q#q#q#q#q#q#q#q#q#q#q#q#q#t$u$v$w$x$=#& @ , $ @ = $ @ ",
"# $ % # $ * # = P.k$i#y$z$i#i#i#i#i#i#i#i#i#i#i#i#i#i#i#A$B$g.  # + C$D$q#q#q#q#q#q#q#q#q#q#q#q#q#q#q#E$F$q#x$G$@   @ .   ' .   ",
"$ ) - $ ) - $ - C k$i#i#i#i#i#i#i#i#i#i#i#i#i#i#i#i#i#H$I$J$) - $ ) ' K$L$q#q#q#q#q#q#q#q#q#q#q#q#q#q#q#q#q#x$r$) - ) ) - $ ) - ",
"  . '   . @   @ M$k$i#i#i#i#i#i#i#i#i#i#i#i#i#i#i#i#i#N$C % $ #   . ' J$O$q#q#q#q#q#q#q#q#q#q#q#q#q#q#q#q#q#x$t#= # * $ # % $ # ",
"@ $ = @ $ , @ , P$k$i#i#i#i#i#i#i#i#i#i#i#i#i#i#i#j#Q$R$* ; - * @ $ = @ S$T$U$q#q#q#q#q#q#q#q#q#q#q#q#q#q#q#x$f.> * > - * ; - * ",
"+ $ 9.+ $ = + = V$k$i#i#i#i#i#i#i#i#i#i#i#i#i#i#W$X$Y$. % 1 - % + $ 9.+ $ =#Z$`$q#q#q#q#q#q#q#q#q#q#q#q#q#q#x$s+; % ; . % 1 - % ",
"  . '   . @   @ _+ %.%i#i#i#i#i#i#i#i#i#i#i#i#j#+%@%* $ # % $ #   . '   . @ M$#%$%q#q#q#q#q#q#q#q#q#q#q#q#)$%%/ = # * $ # % $ # ",
"$ ) . $ - - $ - - J$&%*%*%=%i#i#i#i#i#i#)$*%-%;%>%. $ ) . $ ) . $ ) . $ - - $ J$,%'%)%!%q#q#q#q#q#q#U$)%)%~%F@$ $ . $ ) . $ ) . ",
"# $ % # $ * # = = # !.{%]%^%/%/%/%/%/%/%(%_%*#@ @   @ .   ' .   # $ % # $ * # = = W@:%<%[%[%[%[%[%[%}%|%=.1%  @ @   @ .   ' .   ",
"& - . & - - & - - & - - & =#f.=#2%-#^#2%g.$ . $ $ . $ ) . & ) . & - . & - - & - - & - # =#q$f.=#2%-#M$. ) $ . $ $ . $ ) . & ) . ",
"  . '   . @   @ @   @ .   ' .   # $ % # $ * # = = # * $ # % $ #   . '   . @   @ @   @ .   ' .   # $ % # $ * # = = # * $ # % $ # ",
"# $ % # $ * # = = # * $ # % $ #   . +   . @   @ @   @ .   + .   # $ % # $ * # = = # * $ # % $ #   . +   . @   @ @   @ .   + .   ",
"@ $ = @ $ , @ , , @ , $ @ = $ @ * - ; * - > * > > * > - * ; - * @ $ = @ $ , @ , , @ , $ @ = $ @ * - ; * - > * > > * > - * ; - * ",
"  . '   . @   @ @   @ .   ' .   # $ % # $ * # = = # * $ # % $ #   . '   . @   @ @   @ .   ' .   # $ % # $ * # = = # * $ # % $ # ",
"- ) ) - ) ) - ) ) - ) ) - ) ) - ) ) - ) ) ) ) ) ) ) ) ) ) - ) ) - ) ) - ) ) - ) ) - ) ) - ) ) - ) ) - ) ) ) ) ) ) ) ) ) ) - ) ) "};
