/* XPM */
static char *ed2619b88768409782d51d1e6a23b72dTzvnKTXDwmhqdEqI[] = {
/* columns rows colors chars-per-pixel */
"64 64 245 2 ",
"   c #7C4F3D",
".  c #795549",
"X  c #7C594C",
"o  c #795D53",
"O  c #7A665C",
"+  c #7D6C63",
"@  c #864E3C",
"#  c #944E39",
"$  c #8C513D",
"%  c #93523C",
"&  c #9D553D",
"*  c #B44B2F",
"=  c #AB4E35",
"-  c #B64D32",
";  c #A5523C",
":  c #AA533B",
">  c #AA583D",
",  c #B3553B",
"<  c #BA5438",
"1  c #C64E36",
"2  c #CB5234",
"3  c #C75739",
"4  c #CD5B3B",
"5  c #D75637",
"6  c #D35D3C",
"7  c #DA5C3B",
"8  c #E74E2D",
"9  c #ED532E",
"0  c #EF582E",
"q  c #F1552E",
"w  c #F4592E",
"e  c #E45635",
"r  c #EC5632",
"t  c #ED5A35",
"y  c #E45D3C",
"u  c #ED5D3A",
"i  c #F45933",
"p  c #F35B35",
"a  c #F25E3A",
"s  c #C9613D",
"d  c #D5613C",
"f  c #E7643E",
"g  c #ED623D",
"h  c #F56236",
"j  c #F96436",
"k  c #F4623C",
"l  c #F9653B",
"z  c #F56A3D",
"x  c #FA6A3C",
"c  c #F9703F",
"v  c #8D4F43",
"b  c #855443",
"n  c #8B5343",
"m  c #865B4B",
"M  c #895A4A",
"N  c #935642",
"B  c #9A5641",
"V  c #9B5A45",
"C  c #925B4B",
"Z  c #975B48",
"A  c #855F52",
"S  c #8D5E50",
"D  c #955F51",
"F  c #A25C45",
"G  c #A95A44",
"H  c #B55D43",
"J  c #8A604F",
"K  c #9B624D",
"L  c #8D6253",
"P  c #84655B",
"I  c #89665A",
"U  c #926354",
"Y  c #966657",
"T  c #946A5B",
"R  c #9B6C5D",
"E  c #A5634C",
"W  c #B4684C",
"Q  c #A36553",
"!  c #A76956",
"~  c #AB6E5C",
"^  c #B56B57",
"/  c #BC6C53",
"(  c #AB725D",
")  c #B67557",
"_  c #B4735C",
"`  c #BB735D",
"'  c #836A62",
"]  c #8B6E64",
"[  c #936E63",
"{  c #88736A",
"}  c #8D756C",
"|  c #9D7264",
" . c #94756A",
".. c #9A766A",
"X. c #8E7B75",
"o. c #947C75",
"O. c #9D7E74",
"+. c #A27463",
"@. c #AA7967",
"#. c #A37B6B",
"$. c #B97B65",
"%. c #AA7E72",
"&. c #CC5E45",
"*. c #E15F43",
"=. c #CD6546",
"-. c #D56242",
";. c #DC6443",
":. c #DA6649",
">. c #D66A4D",
",. c #DB6C4C",
"<. c #DB714E",
"1. c #C66D55",
"2. c #D36B51",
"3. c #DB6E51",
"4. c #C4735B",
"5. c #CB755B",
"6. c #CA785A",
"7. c #DC7354",
"8. c #D67758",
"9. c #DD795B",
"0. c #E46443",
"q. c #ED6343",
"w. c #E36B44",
"e. c #EE6B44",
"r. c #EA6648",
"t. c #E36C4B",
"y. c #EB6B4B",
"u. c #F36541",
"i. c #F86641",
"p. c #F46C44",
"a. c #FA6C42",
"s. c #F36D49",
"d. c #F96E49",
"f. c #E57346",
"g. c #EC7344",
"h. c #E3744C",
"j. c #EC734C",
"k. c #E7784A",
"l. c #EC7A4D",
"z. c #F57344",
"x. c #FA7344",
"c. c #F57946",
"v. c #FA7946",
"b. c #F5734B",
"n. c #FA744A",
"m. c #F47B4B",
"M. c #FA7C4B",
"N. c #E36D52",
"B. c #E37554",
"V. c #EB7453",
"C. c #E57857",
"Z. c #EC7C54",
"A. c #E37C5B",
"S. c #EB7D5A",
"D. c #F37551",
"F. c #F97652",
"G. c #F47C53",
"H. c #FA7C53",
"J. c #F67D59",
"K. c #C37B64",
"L. c #C47A66",
"P. c #CB7D63",
"I. c #D47D63",
"U. c #E67C62",
"Y. c #9C8379",
"T. c #AC816D",
"R. c #B7836D",
"E. c #A4857B",
"W. c #A7867A",
"Q. c #B78574",
"!. c #B48B7C",
"~. c #BE917C",
"^. c #DA815D",
"/. c #F5814E",
"(. c #FA824E",
"). c #EB825B",
"_. c #EA845A",
"`. c #F48353",
"'. c #FA8453",
"]. c #F78955",
"[. c #FB8955",
"{. c #F3845C",
"}. c #F98559",
"|. c #F48B5C",
" X c #FB8B5A",
".X c #FB905F",
"XX c #C9836A",
"oX c #D68669",
"OX c #C98975",
"+X c #C48C7B",
"@X c #D88C73",
"#X c #C8927C",
"$X c #DA9377",
"%X c #D4947B",
"&X c #E48463",
"*X c #EC8462",
"=X c #EB8B64",
"-X c #E88769",
";X c #E38C6D",
":X c #EB8E6B",
">X c #F48C62",
",X c #F58B65",
"<X c #E9916D",
"1X c #FA9264",
"2X c #F49368",
"3X c #E68872",
"4X c #EB9472",
"5X c #EC9977",
"6X c #E59478",
"7X c #EB9B7B",
"8X c #F49875",
"9X c #9A8A86",
"0X c #A48C82",
"qX c #AA8E84",
"wX c #B58F81",
"eX c #A8938A",
"rX c #B79688",
"tX c #A89893",
"yX c #B59C94",
"uX c #BAA39A",
"iX c #B9ABA7",
"pX c #BFB0AA",
"aX c #CB9583",
"sX c #C79989",
"dX c #D79987",
"fX c #DD9983",
"gX c #C59F92",
"hX c #E59E83",
"jX c #E89B85",
"kX c #F09F81",
"lX c #DCA18B",
"zX c #CAA599",
"xX c #DAA694",
"cX c #D3AC9D",
"vX c #DAAD9B",
"bX c #DCB19F",
"nX c #E4A48D",
"mX c #EAA388",
"MX c #F1A68B",
"NX c #E7AA95",
"BX c #EDAE98",
"VX c #C9B4AD",
"CX c #D9B5A6",
"ZX c #E9B5A4",
"AX c #D0C5C0",
/* pixels */
"mX).).).&X:XjXnXMXmX5X7XmXmXMX7X5XT.W.|.].|.].].].=X2X|._.`.`._._.|./.^.uXZXnXnXNXMXMXMXMXZXBXBXMXMXMXZXmXNXtXCXmX6X{.<X&X*X*X,X",
"kXM.M.M.M.'. X8X2X.X|.>X1X1X.X].|.| T.].].]./././.].|._.`./.c.m.l././.^.tXlX*X|.*X{.,X{.,X2X:X{.'.,X,X,X|.nX9XzX:X;Xl.b.F.G.b.b.",
"8X(.(.H.'.'. X1X X[.`.`. X`.(.]./.T.~.(././././.(.]./.c.M.(.v.c.(.]./.^.uXnXm.z.n.c.c.M.F.b.M.D.}.}.H.H.b.-Xo.#Xv.z.z.p.c.b.z.n.",
"MX'.'.'.G.'. X X].[.[.}.`.[.].(.].T.~.]./.].]./.].].]./.M.c.c./.].].(.^.yXmXb.c.x.z.M.b.M.H.M.'.'.M.M.M.M.C.Y.@Xv.x.v.c.z.z.p.x.",
"8X[.}.'.'.'.[.`.'.G./.'.].'.'.M./.T.R.[./.`.].`.(.]./.c.c././.(.].]./.^.tX5X/.M.m.c.'.M.M.M.'.c.M.M.M.v.m._.9X$Xv.v.m.v.v.z.p.c ",
"8X'.G.m.G.D.H.m.m.c.m./.'.`.m.c.k.T.#X]./././.`.]./././././././././.c <.tXnX`.`.G.`.|.`.Z.l.m.c.D.c.c.l.l.;X9XaXl.k.k.k.k.f.f.f ",
"aX_ _ _ $.` ( ( ) / ) ) ) ) W W ) Y.~.R.) _ R.XXR.T.W W W ) W ^ ) ) ` ) rXaX$.) _ _ @.T.$.$.OXOX+X+XR.+XsXzXtXzXQ.T.( R.W.W.R.Q.",
"5X;X;X-X&XZ.R.sX=XZ.^._._._._._.<X7XBXNXxX7X7XmXuX~._._.^._._._.Z.`.|._.<X5X7X6X6X$X!.rX<X<X<X4XnXnX7XnX2X5X4XhXmXbX<X|.%XVXMX5X",
"n.z.z.v.v.x.I.#X].m.c.m. X.X(.(.].`.>X1X2X>X|.}.sX%X X,XG.J.J.n.M.H.H.H.J.`.{.{.Z.,XOXzX=XC.A.G.4X<X`.j.c.l.k./.m._.k.c.^.zX7X`.",
"p.p.x.v.n.v.6.#X].(./.c.[.[.`.`.]./.].].].`.].m.~.$X X X}.].}.}.'. X}.}.'.J.{.Z.z.{.OXaXZ.f f g.l.j.c.z.m./.c./.z.z z z oXuX2Xb.",
"p.x.z.n.n.v.XXaX>X(./.(.].].].(.[./..X]. X].'.m.OX%X[. X}. X{. X}.}.H.'.H.S.G.l.b.H.@XaXj.f g e.p.f c.z.m.(./.f c z z f 7.yX}.x.",
"p.z.x.M.n.}.sXsX4X[.(./.[.].`./.(.[.[.].|.'.(.m.Q.#X'.'.'.'.`.[.H.H.'.H.H.}.D.G.D.n.XX+Xg.z g x.z.z z.c.v.c.c c c c.z z h.sX'.a.",
"b.c.b.m.&XdXyX~._./.`.`.|._.`.`././.|.|._.`.`.`.OXaXB.l./.l.l.=Xh.B.l.l.l.k.k.h.k.h.$.aX<.f w.f.k.g.z k.z k.f.f k.f d f 2.eXB.w.",
"$.$._ @.Y.tXtXeXT.| T.| | T.T.| @.T.W.!.Q.!.!.!.eXVXrXW.E.E.Y.Y.9XE.eXW.eXeXqX0X0X0XeXVX!.E.qXW.W.O...E.Y.Y.Y.Y.E.E...O.Y.tXeXY.",
"xXvXcXcXvXCXCXCXcXcXCXVXcXcXzXcXcXAXCXvXvXbXxXxXxXNXNXnXlXlXxXvXvXNXbXVXZXNXxXdXdXfXfXnXnXdXfXlXlXlXdXlXvXVXmX@X;X;XoX$XfXfXmX4X",
"1X1X,X,X[.[..X].]..X1X2X.X.X.X.X|.zX5X_.`.]./.]./.c.z.b.v.m.].].(.(.l.E.7X`.b.e.e.u.p.p.g g e.p.z.c g g z XX/.(.(.c.v.b.z.b.z.c.",
"}.c.b.M.v.'.'.(.'.'.'.'.[.[.'.[./.gX:Xc.c.k.c.c.c.c.c.z.c c.m.v.(.(.M.wX4Xz.u.e.e.e.u.p.p.p.z x p.z z z z XXM.M.(.c.M.M.z.z.b.M.",
" XM.M.M.M.'.'.'.'.'.'.'.'.[.[.[.m.rX=Xm.c.z c c (.v.x.c c c.m.m.M.(.m.wX6Xz.p.e.p.p.p.p.a.p.p.a.x.x.x.z.p.OX[.M.m.v.M.M.z.c.m.M.",
">XM.c.M.M.H.H.'.'.'. X'.[.[.'.(.Z.gX=Xc.c.z.z /.v.v.v.z.c.c.M.z.v.v.z.Q.4Xc.e.g u.z.z.p.z.p.a.x.x.c z.v.j.oX`.M.b.c.n.v.x.c.M.b.",
"8X'.H.'.'. X'.'. X}. X}. X X[.'.).yX5Xm.c.l././.M.M.'.M./.].|. X X.X>X!.<Xv.z.x.b.H.M.z.v.M.v.v.v.v.(.M.G.@X`.'.'.M.'.H.D.M.`.b.",
"%X8.6.9.9.oX_.^.@X@X;X;X;X;X-X&XoXuXdXI.2.8.6.^.8.6.oX6.6.6.6.XXoXoX#XyXdX6.1.6.6.K.K.XXI.K.4.4.6.^.8.6.XXsXOXK.K.K.XXXX$.) _ ^ ",
"uXeX0XqXqX0XeXeXwXwXrXrXrXwX!.wXqXVXuX0XY.E.0XeXtXtXrXrXsXgXzXzXzXsXzXcXCXzXgXzXzXVXiXzXzXgXaXaX+XaXaXaXdXxXdX@XXX@X$XsXiX#XK.P.",
"kX6XjXMXjXcXAXnX3X3X3XjX6XfXjXjXhX6X3XU.9.U.@XdXVXZX4X}.G.'.{.:X}.M.l.H.J.D.H.H.,XdXE.V.d.d.a.i.z i.a.x.d.n.n.x.x.x.a.B.qX).p.h ",
"D.F.F.J.F.P.eXI.y.r.N.V.V.N.y.s.y.q.g u.q.u.r.1.9XhXn.x.x.x.x.x.v.x.x.x.x.x.a.x.n.,.I 7.i.l l x k k i.a.i.a.x x j x x ,.o.V.p.l ",
"D.D.s.F.s.1.} I.r.r.r.y.y.y.r.s.q.u.q.q.u.q.r.1.X.jXi.p.a.x.x.x.z.a.x.v.x.x.x.i.a.0.[ N.i.k k a.i.x a.a.x a.a.x x x x ;...y.l z ",
"s.u.s.s.d.1.X.2.e r.y.y.r.q.q.r.r.r.q.q.q.u.s.&.o.jXp.k z x.v.v.z.a.a.x.x.a.x.a.a.0.[ N.l k i.a.a.i.x x a.x x.z.x x x ;.T j.j h ",
"p.p.s.d.s.1.o.-.8 *.r.r.q.r.s.s.r.q.q.r.u.q.q.&.o.6Xd.p.z n.n.n.v.n.x.x.n.z.x a.i.q...N.i.l i.i.x i.x x x a.k i.x x x w.[ e.l j ",
"V.y.r.s.s.1.o.1.&.:.:.3.3.:.,.3.3.:.;.3.:.*.*.W } oXt.w.;.w.f.h.w.t.j.B.9.7.y.w.*.:.[ 1.*.6 5 7 7 7 d 7 7 6 6 -.6 3 3 > } W W H ",
". @ $ % # b P U M m M S C C C M X S n Z N N N T  .+.V N n N # % V Z S | ! E Q K D ! E.$.! Q Q Q ! ~ +.R +.~ ~ ~ Q K E +.T.$.~ ! ",
"5.1.5.5.P.XX3X6X3XI.@X3XA.&XU.8.o.aXA.9.B.9.&X-X-X*XD.V.V.Z.j.j.J.8.+.<X{.Z.{._.:X:X,X*X{.J.S.J.H.).,XK.dXF.s.r.u.u.u.s.i.u.q.u ",
"D.d.d.F.J.J.J.J.F.D.F.V.F.H.H.V. .oXu.i.i.u.p.i.a.a.a.a.a.a.a.u.x.t.! D.e.z.b.D.J.G.z.b.y.z.z.n.b.m.n.4.OXd.u.l u.a k i.i.a a i ",
"b.s.s.d.F.J.J.F.F.F.F.D.F.H.J.y.[ I.u.u.a u.p.i.a.d.a.d.p.n.a.p.n.B.! D.z.z.b.c.G.D.D.G.s.z.n.n.s.y.p.4.OXd.u.l a a k i.a a a a ",
"d.s.d.s.F.F.J.F.F.F.F.H.H.H.J.V. .P.p.a.u.u.p.p.a.a.a.z.d.d.s.p.n.C.! j.e.p.s.b.b.n.b.b.s.z.s.z.p.e.s.4.+Xd.a a u.a u.i.a l l a ",
"d.s.s.F.F.F.F.J.F.F.H.H.F.F.J.S.[ @Xa.i.a.s.a.i.a.a.n.p.a.n.z.z.d.A.~ p.s.b.b.b.G.D.b.n.d.b.p.a.z.s.b.5.OXd.i.a l i.u.k i.i.l l ",
"b.s.s.s.d.s.s.s.D.V.D.V.b.y.V.,.I K.t.w.e.w.e.w.0.r.w.;.t.w.t.,.<.1.! =.:.,.,.7.7.7.,.B.C.7.7.B.h.<.,.) T.&.3 3 1 3 - * 3 3 1 1 ",
"B # # # $ n $ v $ % % $ % n n n P | E V Z N $ m m b n b b b M m m L { U U L U L U ]  ...| | | R Y Y Y ..yXQ.T Y U Y [ } } ] I D ",
"K.$.1.1.H o %.5.2.=.2.5.8.3.3.3.I.C.Z.B.A.A.C.#.rXoXC.7.C.C.).&X).S.).S.).Z.Z.Z.Z.R.zX;XC.&X-XS.).S.Z.l.Z.S.k.l.j.m.S.XXtX3XB.V.",
"V.*XV.s.*.S OXF.p.e.F.b.d.n.d.b.n.n.n.n.n.n.d.~ ~.M.x.v.v.n.v.M.v.v.n.v.c.v.x.c.x./ W.x.l p.v.z.v.x.x z x x.c z.x x x.2.O.U.u.a ",
"q.u.a u e v XXs.u.s.b.b.d.d.d.d.d.s.n.n.n.n.d.~ R.n.a.x.x.v.x.v.n.n.n.v.n.v.x.x.x.1.#.z.h z x v.x z h j z x.x x x x j -.o.S.a a ",
"e a e a e M $.a.p.u.p.d.i.d.i.i.i.a.z.n.s.d.a.! @.n.z a.x.v.a.v.v.x.x.a.v.x.x.x.x./ Y.z j x x x x h z j x x x z j j l -.O.D.a a ",
"u a r a e v $.s.i.u.s.u.i.i.i.i.i.a.p.d.a.a.a.! %.n.l z a.x.x.x.a.x.x.x d.d.a.v.x.1...z a x x x z j k z x z z x h j j d Y.V.a a ",
"a u a r 8 v K.u.a a u.i.i.u.a u.u.p.u.i.p.u.q.E %.n.k k z p.z p.a.x.z.p.s.d.x.a.a.1.#.e.a a l h h t z z z z h k h h h 4  .7.0.y ",
"& B B B B ] wXH = = G G ; B G F B B B # V D B ] E.! B & V K F F V & V V F F F B # P Y.( G F F F V V F F K K D V % & % n { ..L N ",
"^ ~ 1.` 4.L.@X4.^ ^ ^ ^ ` ` $.+.o.T.K.L.L.L.L.L.%XOXK.K.K.K.K.K.4.` Y.!.L.5.5.5.K.+X#XoX4.` 4.1.4.P.P.P.!.sXI.I.8.6.^.XXoXxX@X7.",
"u *.r u.u.q.a a u a q.q.a a u.&.P 5.t k i.a u.i.u.r.i.q.r.u.g q.k g R P.a a a a u.u.s.q.q.a u.i i.k a i.` #Xa.x x x a.a.b.4XG.a ",
"r r r i a a r a a r a a a i a 1 . =.a a a a a u.u.i.u q.i.a a g u u D 4.a r i a a a a a a a a i p a a i.^ $.x i p l x x x z.a.p ",
"8 r 8 a i a a r i i a a a a i 2 o 2.t a u a i.a u.u g u.a a t u k g M $.u.r a a a a u.u.q.a u.u a a a l ^ $.i.p j l j x x x x p ",
"8 8 8 r u a i r r r r a i i a &.o =.t a t a u.u.a u u.u.a q.u u.k f U $.a a a a a u u.a u.a a a a l a a ^ Q.a.h j j x j l j x j ",
"8 8 r i t t a i i r i a i i a 1 o 2.a a u a u.i.a a u.u.u.a a i.k q.U $.i.a a i.u.q.u.k k u.k k l a a i.^ $.d.i.x x x x x x x j ",
"1 - - - - , , * * - * < 1 < 1 ; + ` &.H - - 1 H < , H - , , = - , G P %.3 = - = ; : ; ; : ; = : , - - , R O.W : ; : > H ; > > : ",
"U S S D P O P A S S A U U U R ..E.Q.@.U T [ Y ' { Y D Z D D S [ R ! @.OX$.Y C D Y O } R | | | ..o.+...+.%.!.%.| +.( +.} ..~ ~ ~ ",
"*.r.r.y.1.O.U.y.r.r.N.y.q.r.q.V.V.y.y.s.V.V.N.O.@Xr.q.q.y.s.D.V.y.q.s.u.r.u.u.u.g Y aXV.p.p.b.Z.V.D.s.s.j.D.H.c.b.M.b.( I.p.p.s.",
"p t t a &.] t.a a a t a a a a i.q.a a i.k a 5 ] L.t a a a a u.l u t a q.i.u.a k u D OXq.h z l p.z p.u.z z c.x.c c x.x ! 6.k t p ",
"t a k a 4 ] ;.a a a u u i a u a a a a a u.a 5 ] P.a a a q.a u.u.a i.k u u.u.u.u.u D K.i.z z z z.z.p.z.z z.z.z.x.c x.x ! XXk t h ",
"t t u a 4 ] ;.a a a u a a a a a a u q.a l a 7 ' P.a a u.l a a u.q.u u.u.u.u.a q.t Y XXp.z x z x.c.z.c.z.x.z.z.x.x.x.z ! XXk h u ",
"t t t i.-.] 0.a a a a a a a a q.u.a a a u.a y ' 1.i a a q.a l i.u.i.u.i.i.i.a i.t R XXi.x p.x.p.z z.n.p.z.z.x.x.x.v.z ! P.j p p ",
"g e e t 3 [ w.y u y g y e y f 0.0.y f y y y 4 ] 1.5 7 7 5 7 d ;.;.*.-.-.-.2 5 2 1 S _ -.3 4 6 6 3 3 =.3 s s d =.s s 3 M ( 5 2 2 ",
"$ $ % % $ ] ! N n n n @ @   b m X @ @ @   @ n { ..K C m m m m L L X . X . . . . . '  .T b . . X X o . o o o J I X X X +  .R M   ",
"=.2.9.>.,.7.7.7.>.>.>.:.,.,.8.T @.,.6 -.>.>.7.7.A.C.9.9.7.7.V.C.9.( E.8.t.:.;.>.N.3.N.U.3.9.3.3.<.9.9.) E.oXe.t.w.t.C.9.V.S.C.h.",
"e g u g a a u p a k h k k k a C ^ q 9 q w w w i 9 p i i i i w i t , T q.a a i a q.q.a a u a q.a k j a 3 ..z.p p h j l l j w h h ",
"0 8 e g t p t r u g k z i.k k C E w r 9 9 9 p 9 9 9 q q q q w i r = S q.a a i a a u q.a u a a a x h h 3 I e.p p h j l p i j p i ",
"t t t h g t u t t u a k u.l r C ! 9 8 9 9 w p w 9 q i w w i w w i G [ u a a a u u.a a a u a a a k k a H ] e.p h h k j h p h j h ",
"r t t g g t t a k a k k k h t C ~ 0 8 9 e w p t 0 r w w q q q i 9 H [ a a a q.a a a l a u q.u.u.i.a i 1 I u p a h x h p h p k l ",
"t t t g k u a u u h a k u.k u C ~ y 9 9 0 p 9 0 t 9 9 9 i q q q 9 G | *.a a a a a u.a a a u.r.u.i.a a < J f t k k i.z z p h k g "
};
