/* XPM */
static char *a00b2cb56f35453b956c71b0ed473464CkeRrH4ZunoImeN8[] = {
/* columns rows colors chars-per-pixel */
"64 64 78 1 ",
"  c #EF996F",
". c #EE9A73",
"X c #EC9D7A",
"o c #F19D74",
"O c #EEA17D",
"+ c #F4A076",
"@ c #F6A877",
"# c #F5A47B",
"$ c #F9A67B",
"% c #F7A97C",
"& c #FAA97E",
"* c #EFA382",
"= c #EFA886",
"- c #EFAD8C",
"; c #F1A681",
": c #F3AB84",
"> c #FBAD83",
", c #F2AD89",
"< c #FBAF88",
"1 c #FDB286",
"2 c #F6B28C",
"3 c #FEB58A",
"4 c #F7BA8C",
"5 c #FEBA8D",
"6 c #EFB89D",
"7 c #F4B594",
"8 c #FDB791",
"9 c #F7B994",
"0 c #FEBC93",
"q c #F2B799",
"w c #F3BA9B",
"e c #FEBE9A",
"r c #EFBDA4",
"t c #F4BEA4",
"y c #FFC295",
"u c #FFC49B",
"i c #FFC99E",
"p c #F5C1A4",
"a c #FCC4A2",
"s c #FFCCA3",
"d c #F5C5AB",
"f c #F9C6A9",
"g c #F7C8AF",
"h c #FECEAA",
"j c #FFD0A7",
"k c #FFD0AB",
"l c #E8C7B8",
"z c #F5C7B2",
"x c #F6CAB4",
"c c #FACDB3",
"v c #F3CEBD",
"b c #F8CFBB",
"n c #FDD2B4",
"m c #FAD4BC",
"M c #EACEC2",
"N c #ECD6CC",
"B c #F7D4C3",
"V c #FAD7C1",
"C c #F7D8C6",
"Z c #FADAC4",
"A c #FADDCC",
"S c #F8DFD1",
"D c #F7E0D4",
"F c #FBE3D4",
"G c #FCE9DC",
"H c #EEE6E1",
"J c #EEECED",
"K c #F7EDE5",
"L c #FCEDE3",
"P c #FBEEE8",
"I c #FCF1E7",
"U c #F3F1EF",
"Y c #FDF3EC",
"T c #F5F5F5",
"R c #FEF7F1",
"E c #FDF9F6",
"W c #F7F8F8",
"Q c #FFFFFF",
/* pixels */
"QQQQQQQQQQQQQQQQQQQQQQQQQQQQQQQQQQQQQQQQQQQQQQQQQQQQQQQQQQQQQQQQ",
"QQQQQQQQQQQQQQQQQQQQQQQQQQQQQQQQQQQQQQQQQQQQQQQQQQQQQQQQQQQQQQQQ",
"QQQQQQQQQQQQQQQQQQQQQQQQQQQQQQQQQQQQQQQQQQQQQQQQQQQQQQQQQQQQQQQQ",
"QQQQQQQQQQQQQQQQQQQQQQQQQQQQQQQQQQQQQQQQQQQQQQQQQQQQQQQQQQQQQQQQ",
"QQQQQQQQQQQQQQQQQQQQQQQQQQQQQQQQQQQQQQQQQQQQQQQQQQQQQQQQQQQQQQQQ",
"QQQQQQQQQQQQQQQQQQQQQQQQQQQQQQQQQQQQQQQQQQQQQQQQQQQQQQQQQQQQQQQQ",
"QQQQQQQQQQQQQQQQQQQQQQQQQQQQQQQQQQQQQQQQQQQQQQQQQQQQQQQQQQQQQQQQ",
"QQQQQQQQQQQQQQQQQQQQQQQQQQQQQQQQQQQQQQQQQQQQQQQQQQQQQQQQQQQQQQQQ",
"QQQQQQQQQQQQQQQQQQQQQQQQQQQQQQQQQQQQQQQQQQQQQQQQQQQQQQQQQQQQQQQQ",
"QQQQQQQRZcmGQQQQQQQQQQQQQQQQQQQQQQQQQQQQQQQQQQQQQQQQEGFIQQQQQQQQ",
"QQQQQQYh3<25mEQQQQQQQQQQQQQQQQQQQQQQQQQQQQQQQQQQQQQGp,:,bEQQQQQQ",
"QQQQQQm80y043mEQQQQQQQQQQQQQQQQQQQQQQQQQQQQQQQQQQQF4:11<%BQQQQQQ",
"QQQQQLuisiuu03AQQQQQQQQQQQQQQQQQQQQQQQQQQQQQQQQQQK73yyyy42LQQQQQ",
"QQQQQmakssuuu48LQQQQQQQQQQQQQQQQQQQQQQQQQQQQQQQQRu4iiuyu0:cQQQQQ",
"QQQQRhhkssuuyy1fEQQQQQQQQQQQQQQQQQQQQQQQQQQQQQQQm4ssuuyya37YQQQQ",
"QQQQLakhsuuyyuy1ZQQQQQQQQQQQQQQQQQQQQQQQQQQQQQQG8usuuyeeae<FQQQQ",
"QQQQFakhsayyyuu58GQQQQQQQQQQQQQQQQQQQQQQQQQQQWUy9jiiyeeyue2mQQQQ",
"QQQQZskjssuyyuui4aRQQQQQQQQQQQQQQQQQQQQQQQQQQWnyijiuy00yeu1gQQQQ",
"QQQQmahssaayyyuii4hRQQQQQQQQQQQQQQQQQQQQQQQQEmyyssiy0000ee<dQQQQ",
"QQQQmsksssuyyyyiiu3uGWQQQQQQQQQQQQQQQQQQQQQRb4ijssu00000ee>pQQQQ",
"QQQQVukssiuyyyyyiii%,gFYURRRRERYEEQQWQQWEIZ9yijjsiye000000:gQQQQ",
"QQQQSyhsiiuyy5yyyiiu4::344y4944y99ewispp9=%yjjjiiy00538800#bQQQQ",
"QQQQGessjiyy5yyyyuiiiiuyyyyyyy4141%@@@%:4yikjiiyyy053300e8#SQQQQ",
"QQQQRauhiuyyy55yyuuiisjjijijssjisiiiiissjjhjjiiyy0553350e3;LQQQQ",
"QQQQQb4ssuuyy5yyyyyyiiiiiijiijijisjjsjssjijiiiyyy553338ee>qEQQQQ",
"QQQQQG5isuuuy55yyyyyiyiiiiiiyyiiiiiiiiiiiiiyiyy53533338e0XvQQQQQ",
"QQQQQEuyssuyy05yy5yyyyyyyyyyyyyyyyyyyyyiyyyyyy55513133ee8:PQQQQQ",
"QQQQQQB3ssue0y5555yyyyyyyyyyyyyyyyyyyyyyyyyyyy555131330t:tEQQQQQ",
"QQQQQQP8asiy0y0y55y&yyy5y555y54y5yy5yyyy555yy&&y111110ee#SQQQQQQ",
"QQQQQQQcyhuy000055yyy555555555yyyy&4y&515y555yyy155138ee-RQQQQQQ",
"QQQQQQQFehsy0000yy&&5555155yyyyyyyyy555551yy55y&y&&530a9xQQQQQQQ",
"QQQQQQQYahsyy00055yy55&y551yyyyyyyyyy5555y&&y&&y&y&&38a9SQQQQQQQ",
"QQQQQQQEhkhu008005535531333y9y5y455535555533315&55&530a9FQQQQQQQ",
"QQQQQQQYansy000080305333331333355355335153311331115&30a8CQQQQQQQ",
"QQQQQQQAensy000803533333333333531533531333115133&5&533aedQQQQQQQ",
"QQQQQQEsskay008808853331333333333115113131111131y&y&33uu,IQQQQQQ",
"QQQQQQG4khuye00088383133333313131111131111113131&5&5&y0a:bQQQQQQ",
"QQQQQQgykiu000883833111111111111111111&111111313y&y&5&0i5;YQQQQQ",
"QQQQQYeihiye08883333111111&11111111<113111111311&y&5&&yye#CQQQQQ",
"QQQQQF4ssay00888313311&1&&1&>>><>1<1<1111111&1115&5&y&yya4tEQQQQ",
"QQQQQmyssuy008333<>>>&>$%%#%$>$$%$$##o+o$>><111111111130ue7PQQQQ",
"QQQQEausaye008331>>>%#oo      o  .oXX;,::Xo$>111111<3338eu,AQQQQ",
"QQQQYussue088833<>>#XX:qdzxxzddxxBADGKYYYDd;o&111113<338ea3bQQQQ",
"QQQQKesuuy00833<>%#o:BYQQQQQQQQQQQQQQQQQQQQG9+&<111133338e8dQQQQ",
"QQQQG0sue00833<>>#.7LQQQQQQQQQQQQQQQQQQQQQQQYp+>1111<3388e8tEQQQ",
"QQQQG9sue0003<<>#o7PQQQQQQQQQQQQQQQQQQQQQQQQQRt#&1>112<3803tEQQQ",
"QQQQG9ay00033<>$X,KQQQQQQQQQQQQQQQQQQQQQQQQQQQY7$&1111<8383dQQQQ",
"QQQQLeaue0311<>X*SQQQQQQQQQQQQQQQQQQQQQQQQQQQQQG%$>><3<<38<dQQQQ",
"QQQQYeue0531<%#ovQQQQQQQQQQQQQQQQQQQQQQQQQQQQQQQbo$&>><133,xQQQQ",
"QQQQEaee0311&$.tEQQQQQQQQQQQQQQQQQQQQQQQQQQQQQQQEqo$%>>><<:AQQQQ",
"QQQQQV8083<&%.-PQQQQQQQQQQQQQQQQQQQQQQQQQQQQQQQQQG%o$$$>:;,PQQQQ",
"QQQQQP8331>#o*SQQQQQQQQQQQQQQQQQQQQQQQQQQQQQQQQQQQVoo#oX#*vQQQQQ",
"QQQQQQm:&&o .vEQQQQQQQQQQQQQQQQQQQQQQQQQQQQQQQQQQQEzX  .X6YQQQQQ",
"QQQQQQRf#XoXvWQQQQQQQQQQQQQQQQQQQQQQQQQQQQQQQQQQQQQEzOXX6KQEQQQQ",
"QQQQQWEUBqrNJUTWQQQQQQQQQQQQQQQQQQQQQQQQQQQQQQQQQQWWUNlMHJTWWQQQ",
"QQQQQQWWWTTTWWWQQQQQQQQQQQQQQQQQQQQQQQQQQQQQQQQQQQEWWWTTTTWWQQQQ",
"QQQQQQQQQQQQQQQQQQQQQQQQQQQQQQQQQQQQQQQQQQQQQQQQQQQQQQQQQQQQQQQQ",
"QQQQQQQQQQQQQQQQQQQQQQQQQQQQQQQQQQQQQQQQQQQQQQQQQQQQQQQQQQQQQQQQ",
"QQQQQQQQQQQQQQQQQQQQQQQQQQQQQQQQQQQQQQQQQQQQQQQQQQQQQQQQQQQQQQQQ",
"QQQQQQQQQQQQQQQQQQQQQQQQQQQQQQQQQQQQQQQQQQQQQQQQQQQQQQQQQQQQQQQQ",
"QQQQQQQQQQQQQQQQQQQQQQQQQQQQQQQQQQQQQQQQQQQQQQQQQQQQQQQQQQQQQQQQ",
"QQQQQQQQQQQQQQQQQQQQQQQQQQQQQQQQQQQQQQQQQQQQQQQQQQQQQQQQQQQQQQQQ",
"QQQQQQQQQQQQQQQQQQQQQQQQQQQQQQQQQQQQQQQQQQQQQQQQQQQQQQQQQQQQQQQQ",
"QQQQQQQQQQQQQQQQQQQQQQQQQQQQQQQQQQQQQQQQQQQQQQQQQQQQQQQQQQQQQQQQ"
};
